<?xml version="1.0" encoding="UTF-8"?>
<svg id="Layer_1" data-name="Layer 1" xmlns="http://www.w3.org/2000/svg" viewBox="0 0 819.05 277.79">
  <defs>
    <style>
      .cls-1 {
        font-family: Cinzel-Bold, 'Cinzel Bold';
        font-size: 26.3px;
        font-weight: 700;
      }

      .cls-1, .cls-2 {
        fill: #fff;
      }

      .cls-2 {
        stroke-width: 0px;
      }
    </style>
  </defs>
  <path class="cls-2" d="m250.22,139.25c0,16.83.09,33.66-.03,50.49-.1,14.07-6.23,24.86-18.37,32.07-9.22,5.47-18.51,10.83-27.78,16.22-15.98,9.29-31.94,18.6-47.96,27.83-5.12,2.95-10.21,6-15.59,8.42-12.41,5.57-24.56,4.19-36.15-2.51-27.37-15.81-54.71-31.69-82-47.64-6.54-3.82-12.98-7.83-16.79-14.87-3.22-5.95-5.46-12.06-5.45-18.94C.11,156.46.09,122.61,0,88.77c-.04-15.14,6.94-26.14,19.69-33.66,18.31-10.8,36.72-21.43,55.1-32.12,9.27-5.39,18.59-10.69,27.81-16.15C110.77,1.99,119.4-.7,129.01.21c6.61.63,12.58,3.13,18.19,6.36,27.87,16.06,55.63,32.32,83.47,48.43,9.64,5.58,16.02,13.58,18.53,24.43.78,3.38.99,6.95,1.01,10.44.1,16.46.04,32.92.04,49.38-.01,0-.03,0-.04,0Zm-244.04,1.57c-.07,0-.15,0-.22,0,.29,17.18.45,34.35.97,51.52.1,3.2,1.18,6.56,2.56,9.49,3.05,6.5,7.88,11.49,14.19,15.1,16.99,9.73,33.91,19.6,50.88,29.36,11.53,6.63,23.12,13.17,34.68,19.76,4.77,2.72,9.89,3.89,15.37,4.05,7.39.22,13.6-2.8,19.76-6.35,26.71-15.45,53.46-30.83,80.19-46.25,7.05-4.07,12.73-9.38,15.96-17.1,2.13-5.09,2.56-10.37,2.56-15.74.02-30.87-.05-61.74.05-92.61.05-14.25-5.96-24.72-18.36-31.82-27.89-15.99-55.64-32.23-83.53-48.22-10.78-6.18-21.78-6.32-32.68-.07-7.37,4.23-14.73,8.48-22.1,12.71-21.31,12.23-42.68,24.36-63.9,36.74-9.12,5.32-14.87,13.18-15.78,24.02-.29,3.49-.55,7-.56,10.51-.06,14.97-.03,29.93-.03,44.9Z"/>
  <path class="cls-2" d="m598.76,182.11c-5.42,1.16-10.91.98-16.35.03-3.69-.64-6.33-2.91-7.87-6.37-.45-1.01-.85-2.05-1.29-3.07-1.95-4.55-3.32-4.83-7.27-1.55-2.28,1.89-4.47,3.93-6.95,5.49-3.42,2.15-6.95,4.25-10.69,5.76-7.95,3.2-19.76.2-25.24-5.54-6.63-6.95-7.7-24.63,4.15-32.38,8.32-5.44,17.57-8.55,26.91-11.52,2.81-.9,5.7-1.64,8.41-2.79,5.19-2.2,8.38-5.96,8.35-11.9-.04-7.58.11-15.16-.18-22.73-.11-2.9-.95-5.84-1.89-8.61-2.18-6.4-6.13-8.34-12.52-6.49-7.35,2.13-15.09,11.24-15.24,18.85-.06,2.98,1.44,6.01,2.4,8.97,1.55,4.8.65,8.49-2.94,11.46-5.21,4.3-12.65,2.97-16.27-2.98-2.8-4.6-2.92-9.44-.89-14.37,4.42-10.72,12.49-17.6,23.02-21.91,7.78-3.19,15.9-3.58,24-2.26,8.61,1.41,14.75,6.46,18.2,14.58,2.74,6.44,3.16,13.28,3.22,20.13.12,14.24-.13,28.48.14,42.71.1,5.31.78,10.69,2,15.85.86,3.63,3.08,6.93,4.81,10.63Zm-27.77-33.35h.02c0-3.5.13-7.01-.03-10.5-.24-5.24-3.51-7.8-8.53-6.25-4.01,1.24-7.89,3.04-11.64,4.96-9.86,5.05-12.99,13.37-12.18,25.09.4,5.78,4.3,9.19,10.05,10.04,6.57.98,12.41-.95,17.82-4.4,2.99-1.91,4.39-4.91,4.47-8.44.08-3.5.02-7,.02-10.5Z"/>
  <path class="cls-2" d="m815.78,182.32c-5.93,0-11.26.28-16.54-.09-4.17-.29-7.05-2.99-8.82-6.76-.31-.67-.55-1.37-.82-2.06-2.29-5.68-3.49-6.01-8.11-1.71-4.79,4.46-10.13,8.01-16.15,10.55-9.78,4.12-23.5-.14-28.36-8.81-5.77-10.28-2.82-22.54,7.13-29.34,7.73-5.29,16.58-8.05,25.37-10.9,2.81-.91,5.71-1.6,8.45-2.68,5.82-2.29,9.5-6.23,9.4-12.92-.12-7.76.09-15.54-.36-23.28-.19-3.21-1.34-6.52-2.73-9.47-2.12-4.52-5.83-6.08-10.62-4.59-8.65,2.7-13.94,8.79-16.21,17.44-1,3.82,1.02,7.2,2.37,10.63,2.03,5.19.22,10.08-4.62,12.7-4.18,2.26-9.33,1.5-12.73-2.03-3.92-4.06-5.15-8.9-3.57-14.33,2.43-8.35,7.64-14.7,14.7-19.53,9.74-6.67,20.62-9.02,32.19-7.16,13.06,2.09,20.47,11.25,21.71,25.68.47,5.51.12,11.09.13,16.63.02,10.72.13,21.45.04,32.17-.09,10.5,1.35,20.55,8.15,29.87Zm-28.38-33.46s-.04,0-.06,0c0-2.96,0-5.91,0-8.87,0-.55-.04-1.11-.08-1.66-.42-5.44-3.24-7.71-8.5-6.26-3.53.97-6.99,2.44-10.25,4.12-10.1,5.21-14.19,10.84-13.54,25.45.27,6.04,4.21,9.71,10.29,10.4,5.3.61,10.14-.54,14.96-2.95,5.13-2.57,7.44-6.31,7.2-11.92-.12-2.77-.02-5.54-.02-8.32Z"/>
  <path class="cls-2" d="m418.43,182.47c-6.2,0-10.99.21-15.75-.05-5.33-.29-8.68-3.4-10.85-8.22-3.07-6.82-3.28-6.58-9.22-1.85-4.3,3.42-8.93,6.62-13.85,9.03-8.55,4.2-17,2.55-24.75-2.44-10.51-6.76-10.97-26.91,1.81-34.65,5.18-3.13,10.82-5.59,16.45-7.87,5.12-2.08,10.53-3.44,15.78-5.23,8.22-2.8,11.38-6.83,11.47-15.58.08-7.19-.32-14.4-.78-21.58-.16-2.53-.9-5.1-1.82-7.48-2.52-6.52-6.75-8.63-13.19-5.93-7.57,3.17-12.54,9.05-14.54,17.07-.46,1.84.15,4,.54,5.96.25,1.24,1.04,2.36,1.53,3.56,2.57,6.31.03,12.4-6,14.41-5.86,1.96-12.66-1.92-14.1-8.23-1.15-5.03-.74-10.06,1.92-14.52,7.51-12.6,18.66-19.76,33.32-20.88,4.72-.36,9.66-.09,14.27.92,9.1,2,14.89,8.13,17.2,17.01,1.29,4.95,1.84,10.21,1.93,15.34.26,14.97.08,29.95.17,44.92.02,3.13.35,6.27.69,9.38.64,5.99,2.54,11.49,7.78,16.9Zm-28.81-33.61s-.06,0-.08,0c0-3.5.2-7.02-.05-10.51-.37-5.31-4.15-8.05-9.17-6.3-4.67,1.63-9.23,3.72-13.56,6.11-6.06,3.36-9.17,8.88-9.83,15.74-.23,2.38-.35,4.79-.26,7.18.25,6.35,3.91,10.3,10.22,11.02,5.45.63,10.56-.34,15.48-2.99,4.91-2.64,7.46-6.35,7.26-11.96-.1-2.76-.02-5.53-.02-8.3Z"/>
  <path class="cls-2" d="m658.35,78.07c12.83-1.13,23.66,2.94,31.74,13.14,2.02,2.54,3.51,5.66,4.58,8.75,1.19,3.42-.33,6.1-3.54,7.81-5.15,2.74-10.87,1.62-14.18-3.32-2.03-3.03-3.2-6.63-4.95-9.87-2.01-3.72-3.98-7.51-6.44-10.94-3.08-4.29-7.19-5.71-12.64-4.17-9.5,2.68-16.26,8.31-20.82,16.96-3.32,6.3-5.49,12.9-6.06,20.01-1.17,14.75-.08,29.2,6.28,42.81,1.47,3.15,3.41,6.16,5.58,8.88,10.67,13.35,31.25,13.44,42.12.19,2.44-2.98,4.36-6.38,6.52-9.59.51-.76.85-1.82,1.56-2.23,1-.58,2.55-1.23,3.35-.83.75.37,1.27,2.15,1.11,3.19-.22,1.39-1.06,2.75-1.88,3.95-10.61,15.46-24.69,23.53-43.93,20.4-12.02-1.96-22.6-6.68-30.82-16.01-7.28-8.25-10.71-18.06-11.47-28.82-1.24-17.32,2.73-33.02,15.21-45.83,8.49-8.71,18.93-13.31,30.95-14.43,2.56-.24,5.17-.03,7.75-.03Z"/>
  <path class="cls-2" d="m471.86,78.82c-.78.38-1.52.89-2.34,1.13-11.02,3.27-17.6,11.08-21.69,21.33-1.16,2.9-2.29,5.93-2.71,9-2.31,17.09-1.86,33.94,5.67,49.91,2.47,5.24,5.92,9.88,10.7,13.19,11.49,7.96,26.52,6.15,36.15-4.46,2.95-3.25,5.12-7.19,7.67-10.8,1.12-1.6,2.07-4.2,4.56-2.54,2.18,1.45.98,3.83-.07,5.47-9.13,14.25-21.23,23.52-39.13,22.62-14.44-.73-26.97-5.71-36.8-16.71-7.37-8.24-10.58-18.16-11.26-28.88-1.23-19.46,3.76-36.74,19.55-49.4,8.51-6.82,18.39-10.55,29.69-9.86Z"/>
  <path class="cls-2" d="m724.44,181.08h-20.1c-.2-2.3-.51-4.26-.52-6.22-.03-26.6-.06-53.19,0-79.79.03-12.3,7.62-18.09,20.28-15.08.2,2.14.6,4.47.6,6.8-.05,29.18-.17,58.36-.27,87.54,0,2,0,4,0,6.74Z"/>
  <path class="cls-2" d="m284.46,138.31c0-43.27,0-86.54,0-129.82,0-1.85.02-3.7.11-5.54C284.67.93,285.8,0,287.81,0c2.06,0,3.07,1.03,3.16,3.02.07,1.48.09,2.96.09,4.44.01,87.47.02,174.94.02,262.4,0,1.66-.06,3.33-.14,4.99-.1,2.03-1.18,2.96-3.22,2.94-2.04-.02-3.08-1.02-3.19-3.01-.08-1.48-.13-2.96-.14-4.43,0-44.01,0-88.02,0-132.03h.07Z"/>
  <path class="cls-2" d="m476.08,78.24c14.57-2.09,29.71,6.04,35.38,18.22,2.4,5.15,1.94,8.39-1.52,10.82-3.91,2.74-10.16,2.46-13.19-1.03-1.89-2.18-3.27-4.85-4.61-7.44-1.94-3.75-3.42-7.76-5.5-11.42-2.2-3.88-5.31-7.03-10.55-9.14Z"/>
  <path class="cls-2" d="m697.34,43.71c3.91-2.24,8.06-3.7,10.85-6.5,2.65-2.66,3.88-6.73,5.92-10.54,2.27,3.94,3.71,8.08,6.51,10.84,2.8,2.76,6.96,4.13,10.74,6.23-3.99,2.34-8.1,3.84-10.93,6.65-2.68,2.67-4.02,6.69-6.2,10.56-2.07-3.73-3.43-7.85-6.16-10.63-2.76-2.82-6.86-4.32-10.72-6.61Z"/>
  <path class="cls-2" d="m759.68,206.92c3.91-2.24,8.06-3.7,10.85-6.5,2.65-2.66,3.88-6.73,5.92-10.54,2.27,3.94,3.71,8.08,6.51,10.84,2.8,2.76,6.96,4.13,10.74,6.23-3.99,2.34-8.1,3.84-10.93,6.65-2.68,2.67-4.02,6.69-6.2,10.56-2.07-3.73-3.43-7.85-6.16-10.63-2.76-2.82-6.86-4.32-10.72-6.61Z"/>
  <path class="cls-2" d="m542.44,206.92c3.91-2.24,8.06-3.7,10.85-6.5,2.65-2.66,3.88-6.73,5.92-10.54,2.27,3.94,3.71,8.08,6.51,10.84,2.8,2.76,6.96,4.13,10.74,6.23-3.99,2.34-8.1,3.84-10.93,6.65-2.68,2.67-4.02,6.69-6.2,10.56-2.07-3.73-3.43-7.85-6.16-10.63-2.76-2.82-6.86-4.32-10.72-6.61Z"/>
  <path class="cls-2" d="m360.33,206.92c3.91-2.24,8.06-3.7,10.85-6.5,2.65-2.66,3.88-6.73,5.92-10.54,2.27,3.94,3.71,8.08,6.51,10.84,2.8,2.76,6.96,4.13,10.74,6.23-3.99,2.34-8.1,3.84-10.93,6.65-2.68,2.67-4.02,6.69-6.2,10.56-2.07-3.73-3.43-7.85-6.16-10.63-2.76-2.82-6.86-4.32-10.72-6.61Z"/>
  <path class="cls-2" d="m112.59,238.68c-3.72-.86-7.49-1.54-11.15-2.61-21.35-6.24-38.97-18.32-53.67-34.81-10.48-11.75-17.86-25.29-22.68-40.26-5.67-17.6-6.55-35.61-3.76-53.7,1.2-7.78,4.01-15.34,6.39-22.9,1.31-4.16,1.91-4.26,6.05-3.8,31.44,3.49,57.44,17.28,77.33,41.86,15.82,19.55,24.04,42.13,25.05,67.35.63,15.74-1.52,30.94-7.53,45.53-.73,1.79-.9,4.29-3.45,4.56-3.1.32-3.89-2.37-4.93-4.46-12.89-25.78-25.74-51.58-38.62-77.37-1.24-2.47-2.45-4.99-4.02-7.25-.58-.83-2.62-1.64-3.18-1.26-.99.67-1.93,2.3-1.85,3.45.12,1.76.96,3.55,1.78,5.18,11.78,23.44,23.62,46.85,35.41,70.29,1.46,2.9,2.7,5.92,4.05,8.88-.41.43-.82.86-1.23,1.3Z"/>
  <path class="cls-2" d="m135.45,238.5c-.14-1.16-.38-1.74-.24-2.22,2.58-9.24,5.12-18.49,7.83-27.69,2.66-9.02,4.87-18.25,8.39-26.93,7.05-17.36,17.64-32.38,32.24-44.37.57-.47,1.18-.9,1.7-1.42,1.18-1.18,1.55-2.53.52-3.98-1.01-1.42-2.44-1.74-3.89-.84-1.56.97-3.04,2.1-4.42,3.31-14.16,12.39-24.48,27.54-32.12,44.63-.53,1.18-1.01,2.38-1.58,3.53-.14.28-.58.4-1.22.82-.39-1.26-.97-2.4-1.07-3.58-1.04-13.28-5.17-25.68-10.93-37.56-1.85-3.82-1.39-6.6.96-10.11,12.42-18.58,28.41-32.92,48.76-42.29,11.19-5.15,23-8.06,35.16-9.6,4.92-.63,5.16-.38,6.96,4.16,10.01,25.21,10.8,50.87,2.49,76.53-11.42,35.25-35,59.33-69.45,72.74-4.97,1.93-10.22,3.15-15.39,4.53-1.48.4-3.11.23-4.72.33Z"/>
  <text class="cls-1" transform="translate(396.09 249.05)"><tspan x="0" y="0">FOREST ESTABLISHMENT</tspan></text>
  <rect class="cls-2" x="336.07" y="201.81" width="480.95" height="3.4" rx="1.7" ry="1.7"/>
</svg>