<?xml version="1.0" encoding="UTF-8"?>
<svg id="Layer_1" data-name="Layer 1" xmlns="http://www.w3.org/2000/svg" viewBox="0 0 210.88 160">
  <defs>
    <style>
      .cls-1 {
        fill: #00a098;
        opacity: .2;
        stroke-width: 0px;
      }

      .cls-2 {
        opacity: .37;
      }
    </style>
  </defs>
  <g class="cls-2">
    <path class="cls-1" d="m92.79,158.73c-3.72-.86-7.49-1.54-11.15-2.61-21.35-6.24-38.97-18.32-53.67-34.81-10.48-11.75-17.86-25.29-22.68-40.26C-.38,63.46-1.25,45.45,1.53,27.36c1.2-7.78,4.01-15.34,6.39-22.9C9.23.3,9.83.2,13.97.66c31.44,3.49,57.44,17.28,77.33,41.86,15.82,19.55,24.04,42.13,25.05,67.35.63,15.74-1.52,30.94-7.53,45.53-.73,1.79-.9,4.29-3.45,4.56-3.1.32-3.89-2.37-4.93-4.46-12.89-25.78-25.74-51.58-38.62-77.37-1.24-2.47-2.45-4.99-4.02-7.25-.58-.83-2.62-1.64-3.18-1.26-.99.67-1.93,2.3-1.85,3.45.12,1.76.96,3.55,1.78,5.18,11.78,23.44,23.62,46.85,35.41,70.29,1.46,2.9,2.7,5.92,4.05,8.88-.41.43-.82.86-1.23,1.3Z"/>
    <path class="cls-1" d="m115.65,158.55c-.14-1.16-.38-1.74-.24-2.22,2.58-9.24,5.12-18.49,7.83-27.69,2.66-9.02,4.87-18.25,8.39-26.93,7.05-17.36,17.64-32.38,32.24-44.37.57-.47,1.18-.9,1.7-1.42,1.18-1.18,1.55-2.53.52-3.98-1.01-1.42-2.44-1.74-3.89-.84-1.56.97-3.04,2.1-4.42,3.31-14.16,12.39-24.48,27.54-32.12,44.63-.53,1.18-1.01,2.38-1.58,3.53-.14.28-.58.4-1.22.82-.39-1.26-.97-2.4-1.07-3.58-1.04-13.28-5.17-25.68-10.93-37.56-1.85-3.82-1.39-6.6.96-10.11,12.42-18.58,28.41-32.92,48.76-42.29,11.19-5.15,23-8.06,35.16-9.6,4.92-.63,5.16-.38,6.96,4.16,10.01,25.21,10.8,50.87,2.49,76.53-11.42,35.25-35,59.33-69.45,72.74-4.97,1.93-10.22,3.15-15.39,4.53-1.48.4-3.11.23-4.72.33Z"/>
  </g>
</svg>