<?xml version="1.0" encoding="UTF-8"?>
<svg id="Layer_1" data-name="Layer 1" xmlns="http://www.w3.org/2000/svg" viewBox="0 0 250.28 277.7">
  <defs>
    <style>
      .cls-1 {
        fill: #00a098;
        stroke-width: 0px;
      }
    </style>
  </defs>
  <path class="cls-1" d="m250.22,139.22c0,16.83.09,33.66-.03,50.49-.1,14.07-6.23,24.86-18.37,32.07-9.22,5.47-18.51,10.83-27.78,16.22-15.98,9.29-31.94,18.6-47.96,27.83-5.12,2.95-10.21,6-15.59,8.42-12.41,5.57-24.56,4.19-36.15-2.51-27.37-15.81-54.71-31.69-82-47.64-6.54-3.82-12.98-7.83-16.79-14.87-3.22-5.95-5.46-12.06-5.45-18.94C.11,156.43.09,122.58,0,88.74c-.04-15.14,6.94-26.14,19.69-33.66,18.31-10.8,36.72-21.43,55.1-32.12,9.27-5.39,18.59-10.69,27.81-16.15C110.77,1.96,119.4-.74,129.01.18c6.61.63,12.58,3.13,18.19,6.36,27.87,16.06,55.63,32.32,83.47,48.43,9.64,5.58,16.02,13.58,18.53,24.43.78,3.38.99,6.95,1.01,10.44.1,16.46.04,32.92.04,49.38-.01,0-.03,0-.04,0Zm-244.04,1.57c-.07,0-.15,0-.22,0,.29,17.18.45,34.35.97,51.52.1,3.2,1.18,6.56,2.56,9.49,3.05,6.5,7.88,11.49,14.19,15.1,16.99,9.73,33.91,19.6,50.88,29.36,11.53,6.63,23.12,13.17,34.68,19.76,4.77,2.72,9.89,3.89,15.37,4.05,7.39.22,13.6-2.8,19.76-6.35,26.71-15.45,53.46-30.83,80.19-46.25,7.05-4.07,12.73-9.38,15.96-17.1,2.13-5.09,2.56-10.37,2.56-15.74.02-30.87-.05-61.74.05-92.61.05-14.25-5.96-24.72-18.36-31.82-27.89-15.99-55.64-32.23-83.53-48.22-10.78-6.18-21.78-6.32-32.68-.07-7.37,4.23-14.73,8.48-22.1,12.71-21.31,12.23-42.68,24.36-63.9,36.74-9.12,5.32-14.87,13.18-15.78,24.02-.29,3.49-.55,7-.56,10.51-.06,14.97-.03,29.93-.03,44.9Z"/>
  <path class="cls-1" d="m112.59,238.65c-3.72-.86-7.49-1.54-11.15-2.61-21.35-6.24-38.97-18.32-53.67-34.81-10.48-11.75-17.86-25.29-22.68-40.26-5.67-17.6-6.55-35.61-3.76-53.7,1.2-7.78,4.01-15.34,6.39-22.9,1.31-4.16,1.91-4.26,6.05-3.8,31.44,3.49,57.44,17.28,77.33,41.86,15.82,19.55,24.04,42.13,25.05,67.35.63,15.74-1.52,30.94-7.53,45.53-.73,1.79-.9,4.29-3.45,4.56-3.1.32-3.89-2.37-4.93-4.46-12.89-25.78-25.74-51.58-38.62-77.37-1.24-2.47-2.45-4.99-4.02-7.25-.58-.83-2.62-1.64-3.18-1.26-.99.67-1.93,2.3-1.85,3.45.12,1.76.96,3.55,1.78,5.18,11.78,23.44,23.62,46.85,35.41,70.29,1.46,2.9,2.7,5.92,4.05,8.88-.41.43-.82.86-1.23,1.3Z"/>
  <path class="cls-1" d="m135.45,238.47c-.14-1.16-.38-1.74-.24-2.22,2.58-9.24,5.12-18.49,7.83-27.69,2.66-9.02,4.87-18.25,8.39-26.93,7.05-17.36,17.64-32.38,32.24-44.37.57-.47,1.18-.9,1.7-1.42,1.18-1.18,1.55-2.53.52-3.98-1.01-1.42-2.44-1.74-3.89-.84-1.56.97-3.04,2.1-4.42,3.31-14.16,12.39-24.48,27.54-32.12,44.63-.53,1.18-1.01,2.38-1.58,3.53-.14.28-.58.4-1.22.82-.39-1.26-.97-2.4-1.07-3.58-1.04-13.28-5.17-25.68-10.93-37.56-1.85-3.82-1.39-6.6.96-10.11,12.42-18.58,28.41-32.92,48.76-42.29,11.19-5.15,23-8.06,35.16-9.6,4.92-.63,5.16-.38,6.96,4.16,10.01,25.21,10.8,50.87,2.49,76.53-11.42,35.25-35,59.33-69.45,72.74-4.97,1.93-10.22,3.15-15.39,4.53-1.48.4-3.11.23-4.72.33Z"/>
</svg>